<?xml version="1.0" encoding="UTF-8" standalone="no"?>
<!-- Created with Inkscape (http://www.inkscape.org/) -->

<svg
   xmlns:dc="http://purl.org/dc/elements/1.1/"
   xmlns:cc="http://creativecommons.org/ns#"
   xmlns:rdf="http://www.w3.org/1999/02/22-rdf-syntax-ns#"
   xmlns:svg="http://www.w3.org/2000/svg"
   xmlns="http://www.w3.org/2000/svg"
   xmlns:sodipodi="http://sodipodi.sourceforge.net/DTD/sodipodi-0.dtd"
   xmlns:inkscape="http://www.inkscape.org/namespaces/inkscape"
   width="318.72888mm"
   height="159.03561mm"
   viewBox="0 0 1129.3544 563.51201"
   id="svg5767"
   version="1.1"
   inkscape:version="0.91 r13725"
   sodipodi:docname="architektura.svg">
  <defs
     id="defs5769" />
  <sodipodi:namedview
     id="base"
     pagecolor="#ffffff"
     bordercolor="#666666"
     borderopacity="1.0"
     inkscape:pageopacity="0.0"
     inkscape:pageshadow="2"
     inkscape:zoom="0.5"
     inkscape:cx="375.0159"
     inkscape:cy="204.08311"
     inkscape:document-units="px"
     inkscape:current-layer="layer1"
     showgrid="false"
     fit-margin-top="1"
     fit-margin-bottom="1"
     fit-margin-right="20"
     fit-margin-left="20"
     inkscape:window-width="1280"
     inkscape:window-height="751"
     inkscape:window-x="0"
     inkscape:window-y="1"
     inkscape:window-maximized="1" />
  <metadata
     id="metadata5772">
    <rdf:RDF>
      <cc:Work
         rdf:about="">
        <dc:format>image/svg+xml</dc:format>
        <dc:type
           rdf:resource="http://purl.org/dc/dcmitype/StillImage" />
        <dc:title></dc:title>
      </cc:Work>
    </rdf:RDF>
  </metadata>
  <g
     inkscape:groupmode="layer"
     id="layer2"
     inkscape:label="Strokes"
     transform="translate(-25.587472,-64.479775)">
    <path
       style="fill:none;fill-rule:evenodd;stroke:#333333;stroke-width:2.53546286;stroke-linecap:butt;stroke-linejoin:miter;stroke-miterlimit:4;stroke-dasharray:none;stroke-opacity:1"
       d="m 978,250.09448 -90,0"
       id="path36080"
       inkscape:connector-curvature="0" />
    <path
       style="fill:none;fill-rule:evenodd;stroke:#333333;stroke-width:2.53546286;stroke-linecap:butt;stroke-linejoin:miter;stroke-miterlimit:4;stroke-dasharray:none;stroke-opacity:1"
       d="m 888,540.09448 90,0"
       id="path36082"
       inkscape:connector-curvature="0" />
    <path
       style="fill:none;fill-rule:evenodd;stroke:#333333;stroke-width:2;stroke-linecap:butt;stroke-linejoin:miter;stroke-miterlimit:4;stroke-dasharray:none;stroke-opacity:1"
       d="M 748.06271,208.18913 553.93729,129.99983"
       id="path36084"
       inkscape:connector-curvature="0"
       sodipodi:nodetypes="cc" />
    <path
       style="fill:none;fill-rule:evenodd;stroke:#333333;stroke-width:2;stroke-linecap:butt;stroke-linejoin:miter;stroke-miterlimit:4;stroke-dasharray:none;stroke-opacity:1"
       d="m 748,226.09448 -352,130"
       id="path36086"
       inkscape:connector-curvature="0" />
    <path
       style="fill:none;fill-rule:evenodd;stroke:#333333;stroke-width:2;stroke-linecap:butt;stroke-linejoin:miter;stroke-miterlimit:4;stroke-dasharray:none;stroke-opacity:1"
       d="M 510.02002,534.10497 395.97998,384.08399"
       id="path36088"
       inkscape:connector-curvature="0"
       sodipodi:nodetypes="cc" />
    <path
       style="fill:none;fill-rule:evenodd;stroke:#333333;stroke-width:1.88421857;stroke-linecap:butt;stroke-linejoin:miter;stroke-miterlimit:4;stroke-dasharray:none;stroke-opacity:1"
       d="m 218.02425,440.11113 -56.0485,83.96671"
       id="path36090"
       inkscape:connector-curvature="0"
       sodipodi:nodetypes="cc" />
    <path
       style="fill:none;fill-rule:evenodd;stroke:#333333;stroke-width:2;stroke-linecap:butt;stroke-linejoin:miter;stroke-miterlimit:4;stroke-dasharray:none;stroke-opacity:1"
       d="M 748.06064,513.9666 571.93936,534.22235"
       id="path36092"
       inkscape:connector-curvature="0"
       sodipodi:nodetypes="cc" />
    <path
       inkscape:connector-curvature="0"
       id="path36113"
       d="m 498,126.09448 -200,186"
       style="fill:none;fill-rule:evenodd;stroke:#333333;stroke-width:2;stroke-linecap:butt;stroke-linejoin:miter;stroke-miterlimit:4;stroke-dasharray:6, 6;stroke-dashoffset:0;stroke-opacity:1"
       sodipodi:nodetypes="cc" />
  </g>
  <g
     inkscape:label="Layer 1"
     inkscape:groupmode="layer"
     id="layer1"
     transform="translate(-25.587472,-372.7475)">
    <g
       id="g6755"
       transform="matrix(0.22822823,0,0,0.22822823,63.854505,793.29882)"
       style="fill:#162d50">
      <g
         id="Database_x2C__generic_2"
         style="fill:#162d50" />
      <g
         id="g6738"
         style="fill:#162d50">
        <g
           transform="translate(1972.87,-1602.08)"
           id="shape1033-2094_2_"
           style="fill:#162d50">
          <title
             id="title6741">Sheet.1033</title>
          <path
             id="path6743"
             d="m -1576.7,1828.1 c -49.7,0 -90.8,-12 -90.8,-27.4 0,-15.4 40.2,-27.4 90.8,-27.4 49.7,0 89.9,12 89.9,27.4 0,15.4 -39.4,27.4 -89.9,27.4 z m -126.7,157.5 0,49.7 c 0,23.1 46.2,48.8 107,53.1 l 40.2,0 c 60.8,-4.3 107,-24.8 107,-48.8 l 0,-233.7 c 0,-25.7 -57.4,-50.5 -127.6,-50.5 -70.2,0 -126.7,23.1 -126.7,49.7 l 0,104.4 0.1,76.1 0,0 z"
             inkscape:connector-curvature="0"
             style="fill:#162d50" />
        </g>
        <g
           id="paths"
           style="fill:#162d50">
          <g
             id="Access_control"
             style="fill:#162d50" />
          <g
             id="Azure_active_directory"
             style="fill:#162d50" />
        </g>
        <g
           id="symbols"
           style="fill:#162d50" />
      </g>
    </g>
    <g
       id="g7137"
       transform="matrix(0.31208819,0,0,0.31208819,694.84203,433.57812)"
       style="fill:#16502d">
      <g
         id="Client_application"
         style="fill:#16502d" />
      <g
         id="g7109"
         style="fill:#16502d">
        <g
           id="g7111"
           style="fill:#16502d">
          <path
             id="path7113"
             d="m 246,169.7 0,206 309,0 0,-206 -309,0 z m 85.8,188.8 -68.7,0 0,-128.7 68.7,0 0,128.7 z m 206,0 -188.8,0 0,-128.7 188.8,0 0,128.7 z"
             inkscape:connector-curvature="0"
             style="fill:#16502d" />
          <polygon
             id="polygon7115"
             points="400.5,264.1 494.9,264.1 494.9,246.9 400.5,246.9 "
             style="fill:#16502d" />
          <polygon
             id="polygon7117"
             points="400.5,289.9 494.9,289.9 494.9,272.7 400.5,272.7 "
             style="fill:#16502d" />
          <polygon
             id="polygon7119"
             points="400.5,315.6 494.9,315.6 494.9,298.4 400.5,298.4 "
             style="fill:#16502d" />
          <polygon
             id="polygon7121"
             points="400.5,341.4 494.9,341.4 494.9,324.2 400.5,324.2 "
             style="fill:#16502d" />
          <g
             id="g7123"
             style="fill:#16502d">
            <path
               id="path7125"
               d="m 623.6,395.4 c 0,-237.8 0,-237.8 0,-237.8 0,-11.2 -5.1,-30.9 -18,-30.9 -29.2,0 -410.3,0 -410.3,0 -12.9,0 -25.7,19.7 -25.7,30.9 0,237.8 0,237.8 0,237.8 -46.3,49.8 -43.8,49.8 -43.8,49.8 0,13.7 6.9,24.9 26.6,24.9 137.3,0 489.2,0 489.2,0 15.4,0 25.7,-11.2 25.7,-24.9 l -43.7,-49.8 z m -184.5,54.1 c -85,0 -85,0 -85,0 -4.3,0 -8.6,-1.7 -8.6,-4.3 9.4,-15.4 9.4,-15.4 9.4,-15.4 0,-1.7 3.4,-2.6 6.9,-2.6 68.7,0 68.7,0 68.7,0 3.4,0 6.9,0.9 6.9,2.6 10.3,16.3 10.3,16.3 10.3,16.3 0,1.7 -4.3,3.4 -8.6,3.4 z m 167.3,-57.5 0,0 c -60.1,0.9 -420.6,0.9 -420.6,0.9 0,-226.6 0,-231.7 0,-231.7 l 0,0 0,0 c 0,-6 5.1,-17.2 12,-17.2 394,0 398.3,0 398.3,0 6.9,0 11.2,7.7 11.2,12.9 l 0,235.1 -0.9,0 z"
               inkscape:connector-curvature="0"
               style="fill:#16502d" />
          </g>
        </g>
        <g
           id="paths-9"
           style="fill:#16502d">
          <g
             id="Access_control-9"
             style="fill:#16502d" />
          <g
             id="Azure_active_directory-2"
             style="fill:#16502d" />
        </g>
        <g
           id="symbols-2"
           style="fill:#16502d" />
      </g>
    </g>
    <g
       id="g7637"
       transform="matrix(3.1707317,0,0,3.1707317,383.37907,315.7298)"
       style="fill:#16502d">
      <g
         id="Layer_1"
         style="fill:#16502d">
        <g
           id="File_x2C__general"
           style="fill:#16502d">
          <title
             id="title7600">Sheet.1071</title>
        </g>
        <g
           id="Message"
           style="fill:#16502d" />
        <g
           id="Monitor"
           style="fill:#16502d" />
        <g
           id="Monitor_running_apps"
           style="fill:#16502d" />
        <g
           id="Mouse"
           style="fill:#16502d" />
        <g
           id="Network_card"
           style="fill:#16502d" />
        <g
           id="Not_allowed"
           style="fill:#16502d" />
        <g
           id="Performance"
           style="fill:#16502d" />
        <g
           id="Phone"
           style="fill:#16502d" />
        <g
           id="Plug_and_play"
           style="fill:#16502d" />
        <g
           id="Powershell_script_file"
           style="fill:#16502d" />
        <g
           id="Protocol_stack"
           style="fill:#16502d" />
        <g
           id="Queue_x2C__general"
           style="fill:#16502d" />
        <g
           id="RMS_connector"
           style="fill:#16502d" />
        <g
           id="Router"
           style="fill:#16502d" />
        <g
           id="Script_file"
           style="fill:#16502d" />
        <g
           id="Secure_virtual_machine"
           style="fill:#16502d" />
      </g>
      <g
         id="paths-0"
         style="fill:#16502d">
        <g
           id="Access_control-8"
           style="fill:#16502d" />
        <g
           id="Azure_active_directory-3"
           style="fill:#16502d" />
        <g
           id="Generic_code"
           style="fill:#16502d" />
        <g
           id="Laptop"
           style="fill:#16502d" />
        <g
           id="Load_balancer"
           style="fill:#16502d" />
        <g
           id="Lock_x2C__protected"
           style="fill:#16502d" />
      </g>
      <g
         id="symbols-5"
         style="fill:#16502d">
        <g
           id="g7626"
           style="fill:#16502d">
          <path
             id="path7628"
             d="m 52.6,19.1 -16,0 c -1.1,0 -2,0.9 -2,2 l 0,39 20,0 0,-39 c 0,-1.1 -0.9,-2 -2,-2 z m -1,37 -14,0 0,-2 14,0 0,2 z m 0,-4 -14,0 0,-2 14,0 0,2 z m 0,-25 -14,0 0,-2 14,0 0,2 z"
             inkscape:connector-curvature="0"
             style="fill:#16502d" />
        </g>
      </g>
      <g
         id="slices"
         style="fill:#16502d" />
    </g>
    <g
       id="g25002"
       transform="matrix(-0.77286814,0,0,0.77286814,1328.843,285.05515)"
       style="fill:#4d4d4d">
      <g
         id="paths-1"
         style="fill:#4d4d4d">
        <g
           id="Access_control-6"
           style="fill:#4d4d4d" />
        <g
           id="Azure_active_directory-8"
           style="fill:#4d4d4d" />
        <g
           id="Generic_code-2"
           style="fill:#4d4d4d" />
        <g
           id="Laptop-3"
           style="fill:#4d4d4d" />
        <g
           id="Load_balancer-8"
           style="fill:#4d4d4d" />
        <g
           id="Lock_x2C__protected-4"
           style="fill:#4d4d4d" />
      </g>
      <g
         id="symbols-59"
         style="fill:#4d4d4d" />
      <g
         id="slices-8"
         style="fill:#4d4d4d" />
      <g
         id="User"
         style="fill:#4d4d4d">
        <title
           id="title24982">Sheet.100</title>
        <g
           id="g24984"
           style="fill:#4d4d4d">
          <g
             transform="translate(7.20825,-11.5207)"
             id="shape101-188_1_"
             style="fill:#4d4d4d">
            <title
               id="title24987">Sheet.101</title>
            <path
               id="path24989"
               d="m 380.4,242.5 c -21.4,5.1 -33.9,28.7 -27.9,52.8 6,24 27.9,38.6 49.3,33.5 21.4,-5.1 33.9,-28.7 27.9,-52.8 -6,-23.6 -28.3,-38.6 -49.3,-33.5 z"
               inkscape:connector-curvature="0"
               style="fill:#4d4d4d" />
          </g>
          <g
             id="shape102-190_1_"
             style="fill:#4d4d4d">
            <title
               id="title24992">Sheet.102</title>
            <path
               id="path24994"
               d="m 433.4,323.7 c -3.9,-0.4 -8.6,7.3 -14.6,10.3 -6,2.6 -12.4,8.1 -29.6,0 -17.2,-8.1 -19.7,-15 -34.3,-15 -14.6,0 -37.7,25.7 -38.2,63 l 145.8,0 c -0.4,0 -1.7,-25.7 -9.9,-39.5 -9.7,-18.4 -15.3,-18.8 -19.2,-18.8 z"
               inkscape:connector-curvature="0"
               style="fill:#4d4d4d" />
          </g>
        </g>
      </g>
    </g>
    <g
       transform="matrix(0.31208819,0,0,0.31208819,694.84203,725.57812)"
       id="g35240"
       style="fill:#162d50">
      <g
         id="g35242"
         style="fill:#162d50" />
      <g
         id="g35244"
         style="fill:#162d50">
        <g
           id="g35246"
           style="fill:#162d50">
          <path
             style="fill:#162d50"
             inkscape:connector-curvature="0"
             d="m 246,169.7 0,206 309,0 0,-206 -309,0 z m 85.8,188.8 -68.7,0 0,-128.7 68.7,0 0,128.7 z m 206,0 -188.8,0 0,-128.7 188.8,0 0,128.7 z"
             id="path35248" />
          <polygon
             style="fill:#162d50"
             points="494.9,264.1 494.9,246.9 400.5,246.9 400.5,264.1 "
             id="polygon35250" />
          <polygon
             style="fill:#162d50"
             points="494.9,289.9 494.9,272.7 400.5,272.7 400.5,289.9 "
             id="polygon35252" />
          <polygon
             style="fill:#162d50"
             points="494.9,315.6 494.9,298.4 400.5,298.4 400.5,315.6 "
             id="polygon35254" />
          <polygon
             style="fill:#162d50"
             points="494.9,341.4 494.9,324.2 400.5,324.2 400.5,341.4 "
             id="polygon35256" />
          <g
             id="g35258"
             style="fill:#162d50">
            <path
               style="fill:#162d50"
               inkscape:connector-curvature="0"
               d="m 623.6,395.4 c 0,-237.8 0,-237.8 0,-237.8 0,-11.2 -5.1,-30.9 -18,-30.9 -29.2,0 -410.3,0 -410.3,0 -12.9,0 -25.7,19.7 -25.7,30.9 0,237.8 0,237.8 0,237.8 -46.3,49.8 -43.8,49.8 -43.8,49.8 0,13.7 6.9,24.9 26.6,24.9 137.3,0 489.2,0 489.2,0 15.4,0 25.7,-11.2 25.7,-24.9 l -43.7,-49.8 z m -184.5,54.1 c -85,0 -85,0 -85,0 -4.3,0 -8.6,-1.7 -8.6,-4.3 9.4,-15.4 9.4,-15.4 9.4,-15.4 0,-1.7 3.4,-2.6 6.9,-2.6 68.7,0 68.7,0 68.7,0 3.4,0 6.9,0.9 6.9,2.6 10.3,16.3 10.3,16.3 10.3,16.3 0,1.7 -4.3,3.4 -8.6,3.4 z m 167.3,-57.5 0,0 c -60.1,0.9 -420.6,0.9 -420.6,0.9 0,-226.6 0,-231.7 0,-231.7 l 0,0 0,0 c 0,-6 5.1,-17.2 12,-17.2 394,0 398.3,0 398.3,0 6.9,0 11.2,7.7 11.2,12.9 l 0,235.1 -0.9,0 z"
               id="path35260" />
          </g>
        </g>
        <g
           id="g35262"
           style="fill:#162d50">
          <g
             id="g35264"
             style="fill:#162d50" />
          <g
             id="g35266"
             style="fill:#162d50" />
        </g>
        <g
           id="g35268"
           style="fill:#162d50" />
      </g>
    </g>
    <g
       transform="matrix(-0.77286814,0,0,0.77286814,1328.843,577.05515)"
       id="g35270"
       style="fill:#4d4d4d">
      <g
         id="g35272"
         style="fill:#4d4d4d">
        <g
           id="g35274"
           style="fill:#4d4d4d" />
        <g
           id="g35276"
           style="fill:#4d4d4d" />
        <g
           id="g35278"
           style="fill:#4d4d4d" />
        <g
           id="g35280"
           style="fill:#4d4d4d" />
        <g
           id="g35282"
           style="fill:#4d4d4d" />
        <g
           id="g35284"
           style="fill:#4d4d4d" />
      </g>
      <g
         id="g35286"
         style="fill:#4d4d4d" />
      <g
         id="g35288"
         style="fill:#4d4d4d" />
      <g
         id="g35290"
         style="fill:#4d4d4d">
        <title
           id="title35292">Sheet.100</title>
        <g
           id="g35294"
           style="fill:#4d4d4d">
          <g
             id="g35296"
             transform="translate(7.20825,-11.5207)"
             style="fill:#4d4d4d">
            <title
               id="title35298">Sheet.101</title>
            <path
               style="fill:#4d4d4d"
               inkscape:connector-curvature="0"
               d="m 380.4,242.5 c -21.4,5.1 -33.9,28.7 -27.9,52.8 6,24 27.9,38.6 49.3,33.5 21.4,-5.1 33.9,-28.7 27.9,-52.8 -6,-23.6 -28.3,-38.6 -49.3,-33.5 z"
               id="path35300" />
          </g>
          <g
             id="g35302"
             style="fill:#4d4d4d">
            <title
               id="title35304">Sheet.102</title>
            <path
               style="fill:#4d4d4d"
               inkscape:connector-curvature="0"
               d="m 433.4,323.7 c -3.9,-0.4 -8.6,7.3 -14.6,10.3 -6,2.6 -12.4,8.1 -29.6,0 -17.2,-8.1 -19.7,-15 -34.3,-15 -14.6,0 -37.7,25.7 -38.2,63 l 145.8,0 c -0.4,0 -1.7,-25.7 -9.9,-39.5 -9.7,-18.4 -15.3,-18.8 -19.2,-18.8 z"
               id="path35306" />
          </g>
        </g>
      </g>
    </g>
    <g
       transform="matrix(3.1707317,0,0,3.1707317,399.87711,715.7298)"
       id="g35408"
       style="fill:#162d50">
      <g
         id="g35410"
         style="fill:#162d50">
        <g
           id="g35412"
           style="fill:#162d50">
          <title
             id="title35414">Sheet.1071</title>
        </g>
        <g
           id="g35416"
           style="fill:#162d50" />
        <g
           id="g35418"
           style="fill:#162d50" />
        <g
           id="g35420"
           style="fill:#162d50" />
        <g
           id="g35422"
           style="fill:#162d50" />
        <g
           id="g35424"
           style="fill:#162d50" />
        <g
           id="g35426"
           style="fill:#162d50" />
        <g
           id="g35428"
           style="fill:#162d50" />
        <g
           id="g35430"
           style="fill:#162d50" />
        <g
           id="g35432"
           style="fill:#162d50" />
        <g
           id="g35434"
           style="fill:#162d50" />
        <g
           id="g35436"
           style="fill:#162d50" />
        <g
           id="g35438"
           style="fill:#162d50" />
        <g
           id="g35440"
           style="fill:#162d50" />
        <g
           id="g35442"
           style="fill:#162d50" />
        <g
           id="g35444"
           style="fill:#162d50" />
        <g
           id="g35446"
           style="fill:#162d50" />
      </g>
      <g
         id="g35448"
         style="fill:#162d50">
        <g
           id="g35450"
           style="fill:#162d50" />
        <g
           id="g35452"
           style="fill:#162d50" />
        <g
           id="g35454"
           style="fill:#162d50" />
        <g
           id="g35456"
           style="fill:#162d50" />
        <g
           id="g35458"
           style="fill:#162d50" />
        <g
           id="g35460"
           style="fill:#162d50" />
      </g>
      <g
         id="g35462"
         style="fill:#162d50">
        <g
           id="g35464"
           style="fill:#162d50">
          <path
             style="fill:#162d50"
             inkscape:connector-curvature="0"
             d="m 52.6,19.1 -16,0 c -1.1,0 -2,0.9 -2,2 l 0,39 20,0 0,-39 c 0,-1.1 -0.9,-2 -2,-2 z m -1,37 -14,0 0,-2 14,0 0,2 z m 0,-4 -14,0 0,-2 14,0 0,2 z m 0,-25 -14,0 0,-2 14,0 0,2 z"
             id="path35466" />
        </g>
      </g>
      <g
         id="g35468"
         style="fill:#162d50" />
    </g>
    <text
       xml:space="preserve"
       style="font-style:normal;font-weight:normal;font-size:13.75px;line-height:125%;font-family:sans-serif;text-align:start;letter-spacing:0px;word-spacing:0px;text-anchor:start;fill:#000000;fill-opacity:1;stroke:none;stroke-width:1px;stroke-linecap:butt;stroke-linejoin:miter;stroke-opacity:1"
       x="523.14575"
       y="535.36121"
       id="text35470"
       sodipodi:linespacing="125%"><tspan
         sodipodi:role="line"
         id="tspan35472"
         x="523.14575"
         y="535.36121"
         style="font-size:25px;text-align:center;text-anchor:middle">Server</tspan><tspan
         sodipodi:role="line"
         x="523.14575"
         y="566.61121"
         style="font-size:25px;text-align:center;text-anchor:middle"
         id="tspan36115">e-shopu</tspan></text>
    <text
       xml:space="preserve"
       style="font-style:normal;font-weight:normal;font-size:13.75px;line-height:125%;font-family:sans-serif;text-align:start;letter-spacing:0px;word-spacing:0px;text-anchor:start;fill:#000000;fill-opacity:1;stroke:none;stroke-width:1px;stroke-linecap:butt;stroke-linejoin:miter;stroke-opacity:1"
       x="486"
       y="932.36218"
       id="text35474"
       sodipodi:linespacing="125%"><tspan
         sodipodi:role="line"
         id="tspan35476"
         x="486"
         y="932.36218"
         style="font-size:25px">Frontend</tspan></text>
    <text
       xml:space="preserve"
       style="font-style:normal;font-weight:normal;font-size:13.75px;line-height:125%;font-family:sans-serif;text-align:start;letter-spacing:0px;word-spacing:0px;text-anchor:start;fill:#000000;fill-opacity:1;stroke:none;stroke-width:1px;stroke-linecap:butt;stroke-linejoin:miter;stroke-opacity:1"
       x="245.06943"
       y="779.36121"
       id="text35478"
       sodipodi:linespacing="125%"><tspan
         sodipodi:role="line"
         id="tspan35480"
         x="245.06943"
         y="779.36121"
         style="font-size:25px">Backend</tspan></text>
    <text
       xml:space="preserve"
       style="font-style:normal;font-weight:normal;font-size:13.75px;line-height:125%;font-family:sans-serif;text-align:start;letter-spacing:0px;word-spacing:0px;text-anchor:start;fill:#000000;fill-opacity:1;stroke:none;stroke-width:1px;stroke-linecap:butt;stroke-linejoin:miter;stroke-opacity:1"
       x="94"
       y="932.36218"
       id="text35482"
       sodipodi:linespacing="125%"><tspan
         sodipodi:role="line"
         id="tspan35484"
         x="94"
         y="932.36218"
         style="font-size:25px">Databáze</tspan></text>
    <text
       xml:space="preserve"
       style="font-style:normal;font-weight:normal;font-size:25px;line-height:125%;font-family:sans-serif;text-align:start;letter-spacing:0px;word-spacing:0px;text-anchor:start;fill:#000000;fill-opacity:1;stroke:none;stroke-width:1px;stroke-linecap:butt;stroke-linejoin:miter;stroke-opacity:1"
       x="971.01971"
       y="610.36218"
       id="text35486"
       sodipodi:linespacing="125%"><tspan
         sodipodi:role="line"
         id="tspan35488"
         x="971.01971"
         y="610.36218">Zákazník</tspan></text>
    <text
       xml:space="preserve"
       style="font-style:normal;font-weight:normal;font-size:25px;line-height:125%;font-family:sans-serif;text-align:start;letter-spacing:0px;word-spacing:0px;text-anchor:start;fill:#000000;fill-opacity:1;stroke:none;stroke-width:1px;stroke-linecap:butt;stroke-linejoin:miter;stroke-opacity:1"
       x="976.8913"
       y="901.36316"
       id="text35490"
       sodipodi:linespacing="125%"><tspan
         sodipodi:role="line"
         id="tspan35492"
         x="976.8913"
         y="901.36316">Správce</tspan></text>
    <text
       xml:space="preserve"
       style="font-style:normal;font-weight:normal;font-size:25px;line-height:125%;font-family:sans-serif;text-align:start;letter-spacing:0px;word-spacing:0px;text-anchor:start;fill:#000000;fill-opacity:1;stroke:none;stroke-width:1px;stroke-linecap:butt;stroke-linejoin:miter;stroke-opacity:1"
       x="737.03564"
       y="900.36218"
       id="text35494"
       sodipodi:linespacing="125%"><tspan
         sodipodi:role="line"
         id="tspan35496"
         x="737.03564"
         y="900.36218">Administrace</tspan></text>
    <text
       xml:space="preserve"
       style="font-style:normal;font-weight:normal;font-size:25px;line-height:125%;font-family:sans-serif;text-align:start;letter-spacing:0px;word-spacing:0px;text-anchor:start;fill:#000000;fill-opacity:1;stroke:none;stroke-width:1px;stroke-linecap:butt;stroke-linejoin:miter;stroke-opacity:1"
       x="775.62207"
       y="609.36121"
       id="text35498"
       sodipodi:linespacing="125%"><tspan
         sodipodi:role="line"
         id="tspan35500"
         x="775.62207"
         y="609.36121">E-shop</tspan></text>
    <g
       id="g36041"
       transform="matrix(3.6909091,0,0,3.6909091,144.69246,524.58105)"
       style="fill:#162d50">
      <g
         id="Layer_1-3"
         style="fill:#162d50">
        <g
           id="File_x2C__general-6"
           style="fill:#162d50">
          <title
             id="title35993">Sheet.1071</title>
        </g>
        <g
           id="Message-2"
           style="fill:#162d50" />
        <g
           id="Monitor-2"
           style="fill:#162d50" />
        <g
           id="Monitor_running_apps-0"
           style="fill:#162d50" />
        <g
           id="Mouse-1"
           style="fill:#162d50" />
        <g
           id="Network_card-7"
           style="fill:#162d50" />
        <g
           id="Not_allowed-7"
           style="fill:#162d50" />
        <g
           id="Performance-3"
           style="fill:#162d50" />
        <g
           id="Phone-1"
           style="fill:#162d50" />
        <g
           id="Plug_and_play-4"
           style="fill:#162d50" />
        <g
           id="Powershell_script_file-2"
           style="fill:#162d50" />
        <g
           id="Protocol_stack-7"
           style="fill:#162d50" />
        <g
           id="Queue_x2C__general-2"
           style="fill:#162d50" />
        <g
           id="RMS_connector-9"
           style="fill:#162d50" />
        <g
           id="Router-3"
           style="fill:#162d50" />
        <g
           id="Script_file-1"
           style="fill:#162d50" />
        <g
           id="Secure_virtual_machine-8"
           style="fill:#162d50" />
        <g
           id="Server_farm"
           style="fill:#162d50">
          <g
             id="g36012"
             style="fill:#162d50">
            <g
               id="g36014"
               style="fill:#162d50">
              <path
                 id="path36016"
                 d="m 29.5,26 -13.6,0 c -0.9,0 -1.7,0.7 -1.7,1.7 l 0,33.3 17,0 0,-33.3 C 31.2,26.8 30.4,26 29.5,26 Z m -1.3,32 -11,0 0,-2 11,0 0,2 z m 0,-4 -11,0 0,-2 11,0 0,2 z m 0,-21 -11,0 0,-2 11,0 0,2 z"
                 inkscape:connector-curvature="0"
                 style="fill:#162d50" />
            </g>
            <g
               id="g36018"
               style="fill:#162d50">
              <path
                 id="path36020"
                 d="m 48.5,25.9 -13.6,0 c -0.9,0 -1.7,0.7 -1.7,1.7 l 0,33.3 17,0 0,-33.3 c 0,-0.9 -0.8,-1.7 -1.7,-1.7 z m -1.3,32 -11,0 0,-2 11,0 0,2 z m 0,-4 -11,0 0,-2 11,0 0,2 z m 0,-21 -11,0 0,-2 11,0 0,2 z"
                 inkscape:connector-curvature="0"
                 style="fill:#162d50" />
            </g>
            <g
               id="g36022"
               style="fill:#162d50">
              <path
                 id="path36024"
                 d="m 67.5,26 -13.6,0 c -0.9,0 -1.7,0.7 -1.7,1.7 l 0,33.3 17,0 0,-33.3 C 69.2,26.8 68.4,26 67.5,26 Z m -1.3,32 -11,0 0,-2 11,0 0,2 z m 0,-4 -11,0 0,-2 11,0 0,2 z m 0,-21 -11,0 0,-2 11,0 0,2 z"
                 inkscape:connector-curvature="0"
                 style="fill:#162d50" />
            </g>
          </g>
        </g>
      </g>
      <g
         id="paths-5"
         style="fill:#162d50">
        <g
           id="Access_control-87"
           style="fill:#162d50" />
        <g
           id="Azure_active_directory-6"
           style="fill:#162d50" />
        <g
           id="Generic_code-8"
           style="fill:#162d50" />
        <g
           id="Laptop-8"
           style="fill:#162d50" />
        <g
           id="Load_balancer-9"
           style="fill:#162d50" />
        <g
           id="Lock_x2C__protected-1"
           style="fill:#162d50" />
      </g>
      <g
         id="symbols-29"
         style="fill:#162d50" />
      <g
         id="slices-5"
         style="fill:#162d50" />
    </g>
  </g>
</svg>
